<?xml version="1.0" encoding="UTF-8" standalone="no"?>
<!DOCTYPE svg PUBLIC "-//W3C//DTD SVG 1.1//EN"
 "http://www.w3.org/Graphics/SVG/1.1/DTD/svg11.dtd">
<!-- Generated by graphviz version 2.47.0 (20210316.0004)
 -->
<!-- Title: D Pages: 1 -->
<svg width="413pt" height="758pt"
 viewBox="0.00 0.00 413.00 758.00" xmlns="http://www.w3.org/2000/svg" xmlns:xlink="http://www.w3.org/1999/xlink">
<g id="graph0" class="graph" transform="scale(1 1) rotate(0) translate(4 754)">
<title>D</title>
<polygon fill="white" stroke="transparent" points="-4,4 -4,-754 409,-754 409,4 -4,4"/>
<g id="clust2" class="cluster">
<title>cluster_0</title>
<polygon fill="none" stroke="black" points="0,-8 0,-742 183,-742 183,-8 0,-8"/>
<text text-anchor="middle" x="91.5" y="-726.8" font-family="Times,serif" font-size="14.00">sealed blob policy</text>
</g>
<g id="clust3" class="cluster">
<title>cluster_1</title>
<polygon fill="gainsboro" stroke="black" points="39,-602 39,-711 144,-711 144,-602 39,-602"/>
<text text-anchor="middle" x="91.5" y="-695.8" font-family="Times,serif" font-size="14.00">exactly this bios</text>
</g>
<g id="clust4" class="cluster">
<title>cluster_3</title>
<polygon fill="#ffe1ff" stroke="black" points="16,-309 16,-594 167,-594 167,-309 16,-309"/>
<text text-anchor="middle" x="91.5" y="-578.8" font-family="Times,serif" font-size="14.00">prod&#45;signed grub &gt;= 2.4</text>
</g>
<g id="clust6" class="cluster">
<title>cluster_4</title>
<polygon fill="lemonchiffon" stroke="black" points="8,-16 8,-301 175,-301 175,-16 8,-16"/>
<text text-anchor="middle" x="91.5" y="-285.8" font-family="Times,serif" font-size="14.00">prod&#45;signed kernel &gt;= 10.8</text>
</g>
<!-- pcr_0 -->
<g id="node1" class="node">
<title>pcr_0</title>
<polygon fill="gainsboro" stroke="black" points="241,-607 241,-699 375,-699 375,-607 241,-607"/>
<text text-anchor="middle" x="308" y="-683.8" font-family="Times,serif" font-size="14.00">pcr 0</text>
<polyline fill="none" stroke="black" points="241,-676 375,-676 "/>
<text text-anchor="middle" x="308" y="-660.8" font-family="Times,serif" font-size="14.00">68875d7f...</text>
<polyline fill="none" stroke="black" points="241,-653 375,-653 "/>
<text text-anchor="middle" x="308" y="-637.8" font-family="Times,serif" font-size="14.00">bios</text>
<polyline fill="none" stroke="black" points="241,-630 375,-630 "/>
<text text-anchor="middle" x="268.5" y="-614.8" font-family="Times,serif" font-size="14.00">sha256</text>
<polyline fill="none" stroke="black" points="296,-607 296,-630 "/>
<text text-anchor="middle" x="335.5" y="-614.8" font-family="Times,serif" font-size="14.00">f367c842...</text>
</g>
<!-- spam_1 -->
<g id="node2" class="node">
<title>spam_1</title>
<polygon fill="#ffe1ff" stroke="black" points="224.5,-450 224.5,-588 391.5,-588 391.5,-450 224.5,-450"/>
<text text-anchor="middle" x="308" y="-572.8" font-family="Times,serif" font-size="14.00">spam 1</text>
<polyline fill="none" stroke="black" points="224.5,-565 391.5,-565 "/>
<text text-anchor="middle" x="308" y="-549.8" font-family="Times,serif" font-size="14.00">a0f3e0af...0002...0004...</text>
<polyline fill="none" stroke="black" points="224.5,-542 391.5,-542 "/>
<text text-anchor="middle" x="308" y="-526.8" font-family="Times,serif" font-size="14.00">grub</text>
<polyline fill="none" stroke="black" points="224.5,-519 391.5,-519 "/>
<text text-anchor="middle" x="270.5" y="-503.8" font-family="Times,serif" font-size="14.00">signer sha256</text>
<polyline fill="none" stroke="black" points="316.5,-496 316.5,-519 "/>
<text text-anchor="middle" x="354" y="-503.8" font-family="Times,serif" font-size="14.00">a0f2e0af...</text>
<polyline fill="none" stroke="black" points="224.5,-496 391.5,-496 "/>
<text text-anchor="middle" x="267.5" y="-480.8" font-family="Times,serif" font-size="14.00">major</text>
<polyline fill="none" stroke="black" points="310.5,-473 310.5,-496 "/>
<text text-anchor="middle" x="351" y="-480.8" font-family="Times,serif" font-size="14.00">0002</text>
<polyline fill="none" stroke="black" points="224.5,-473 391.5,-473 "/>
<text text-anchor="middle" x="267.5" y="-457.8" font-family="Times,serif" font-size="14.00">minor</text>
<polyline fill="none" stroke="black" points="310.5,-450 310.5,-473 "/>
<text text-anchor="middle" x="351" y="-457.8" font-family="Times,serif" font-size="14.00">0004</text>
</g>
<!-- spam_2 -->
<g id="node3" class="node">
<title>spam_2</title>
<polygon fill="lemonchiffon" stroke="black" points="211,-154.5 211,-315.5 405,-315.5 405,-154.5 211,-154.5"/>
<text text-anchor="middle" x="308" y="-300.3" font-family="Times,serif" font-size="14.00">spam 2</text>
<polyline fill="none" stroke="black" points="211,-292.5 405,-292.5 "/>
<text text-anchor="middle" x="308" y="-277.3" font-family="Times,serif" font-size="14.00">15a442c9...000a...0008...3039...</text>
<polyline fill="none" stroke="black" points="211,-269.5 405,-269.5 "/>
<text text-anchor="middle" x="308" y="-254.3" font-family="Times,serif" font-size="14.00">kernel</text>
<polyline fill="none" stroke="black" points="211,-246.5 405,-246.5 "/>
<text text-anchor="middle" x="262.5" y="-231.3" font-family="Times,serif" font-size="14.00">signer sha256</text>
<polyline fill="none" stroke="black" points="314,-223.5 314,-246.5 "/>
<text text-anchor="middle" x="359.5" y="-231.3" font-family="Times,serif" font-size="14.00">15a442c9...</text>
<polyline fill="none" stroke="black" points="211,-223.5 405,-223.5 "/>
<text text-anchor="middle" x="261" y="-208.3" font-family="Times,serif" font-size="14.00">major</text>
<polyline fill="none" stroke="black" points="311,-200.5 311,-223.5 "/>
<text text-anchor="middle" x="358" y="-208.3" font-family="Times,serif" font-size="14.00">000a</text>
<polyline fill="none" stroke="black" points="211,-200.5 405,-200.5 "/>
<text text-anchor="middle" x="261" y="-185.3" font-family="Times,serif" font-size="14.00">minor</text>
<polyline fill="none" stroke="black" points="311,-177.5 311,-200.5 "/>
<text text-anchor="middle" x="358" y="-185.3" font-family="Times,serif" font-size="14.00">0008</text>
<polyline fill="none" stroke="black" points="211,-177.5 405,-177.5 "/>
<text text-anchor="middle" x="263.5" y="-162.3" font-family="Times,serif" font-size="14.00">revision</text>
<polyline fill="none" stroke="black" points="316,-154.5 316,-177.5 "/>
<text text-anchor="middle" x="360.5" y="-162.3" font-family="Times,serif" font-size="14.00">3039</text>
</g>
<!-- ibb_policy -->
<g id="node4" class="node">
<title>ibb_policy</title>
<polygon fill="none" stroke="black" points="51,-610.5 51,-679.5 131,-679.5 131,-610.5 51,-610.5"/>
<text text-anchor="middle" x="91" y="-664.3" font-family="Times,serif" font-size="14.00">pcr 0</text>
<polyline fill="none" stroke="black" points="51,-656.5 131,-656.5 "/>
<text text-anchor="middle" x="91" y="-641.3" font-family="Times,serif" font-size="14.00">==</text>
<polyline fill="none" stroke="black" points="51,-633.5 131,-633.5 "/>
<text text-anchor="middle" x="91" y="-618.3" font-family="Times,serif" font-size="14.00">68875d7f...</text>
</g>
<!-- ibb_policy&#45;&gt;pcr_0 -->
<g id="edge1" class="edge">
<title>ibb_policy&#45;&gt;pcr_0</title>
<path fill="none" stroke="black" d="M144,-646.93C169.96,-647.9 201.87,-649.09 230.55,-650.16"/>
<polygon fill="black" stroke="black" points="230.67,-653.66 240.79,-650.54 230.93,-646.67 230.67,-653.66"/>
</g>
<!-- grub_policy_0 -->
<g id="node5" class="node">
<title>grub_policy_0</title>
<polygon fill="none" stroke="black" points="44.5,-493.5 44.5,-562.5 137.5,-562.5 137.5,-493.5 44.5,-493.5"/>
<text text-anchor="middle" x="91" y="-547.3" font-family="Times,serif" font-size="14.00">spam 1[0..31]</text>
<polyline fill="none" stroke="black" points="44.5,-539.5 137.5,-539.5 "/>
<text text-anchor="middle" x="91" y="-524.3" font-family="Times,serif" font-size="14.00">==</text>
<polyline fill="none" stroke="black" points="44.5,-516.5 137.5,-516.5 "/>
<text text-anchor="middle" x="91" y="-501.3" font-family="Times,serif" font-size="14.00">a0f3e0af...</text>
</g>
<!-- grub_policy_0&#45;&gt;spam_1 -->
<g id="edge2" class="edge">
<title>grub_policy_0&#45;&gt;spam_1</title>
<path fill="none" stroke="black" d="M167,-524.86C182.19,-524.22 198.34,-523.55 214.07,-522.89"/>
<polygon fill="black" stroke="black" points="214.3,-526.38 224.14,-522.47 214.01,-519.39 214.3,-526.38"/>
</g>
<!-- grub_policy_1 -->
<g id="node6" class="node">
<title>grub_policy_1</title>
<polygon fill="none" stroke="black" points="41,-405.5 41,-474.5 141,-474.5 141,-405.5 41,-405.5"/>
<text text-anchor="middle" x="91" y="-459.3" font-family="Times,serif" font-size="14.00">spam 1[32..35]</text>
<polyline fill="none" stroke="black" points="41,-451.5 141,-451.5 "/>
<text text-anchor="middle" x="91" y="-436.3" font-family="Times,serif" font-size="14.00">==</text>
<polyline fill="none" stroke="black" points="41,-428.5 141,-428.5 "/>
<text text-anchor="middle" x="91" y="-413.3" font-family="Times,serif" font-size="14.00">0002</text>
</g>
<!-- grub_policy_2 -->
<g id="node7" class="node">
<title>grub_policy_2</title>
<polygon fill="none" stroke="black" points="41,-317.5 41,-386.5 141,-386.5 141,-317.5 41,-317.5"/>
<text text-anchor="middle" x="91" y="-371.3" font-family="Times,serif" font-size="14.00">spam 1[36..39]</text>
<polyline fill="none" stroke="black" points="41,-363.5 141,-363.5 "/>
<text text-anchor="middle" x="91" y="-348.3" font-family="Times,serif" font-size="14.00">&gt;=</text>
<polyline fill="none" stroke="black" points="41,-340.5 141,-340.5 "/>
<text text-anchor="middle" x="91" y="-325.3" font-family="Times,serif" font-size="14.00">0004</text>
</g>
<!-- kernel_policy_0 -->
<g id="node8" class="node">
<title>kernel_policy_0</title>
<polygon fill="none" stroke="black" points="44.5,-200.5 44.5,-269.5 137.5,-269.5 137.5,-200.5 44.5,-200.5"/>
<text text-anchor="middle" x="91" y="-254.3" font-family="Times,serif" font-size="14.00">spam 2[0..31]</text>
<polyline fill="none" stroke="black" points="44.5,-246.5 137.5,-246.5 "/>
<text text-anchor="middle" x="91" y="-231.3" font-family="Times,serif" font-size="14.00">==</text>
<polyline fill="none" stroke="black" points="44.5,-223.5 137.5,-223.5 "/>
<text text-anchor="middle" x="91" y="-208.3" font-family="Times,serif" font-size="14.00">15a442c9...</text>
</g>
<!-- kernel_policy_0&#45;&gt;spam_2 -->
<g id="edge3" class="edge">
<title>kernel_policy_0&#45;&gt;spam_2</title>
<path fill="none" stroke="black" d="M175,-235C183.34,-235 191.89,-235 200.44,-235"/>
<polygon fill="black" stroke="black" points="200.59,-238.5 210.59,-235 200.59,-231.5 200.59,-238.5"/>
</g>
<!-- kernel_policy_1 -->
<g id="node9" class="node">
<title>kernel_policy_1</title>
<polygon fill="none" stroke="black" points="41,-112.5 41,-181.5 141,-181.5 141,-112.5 41,-112.5"/>
<text text-anchor="middle" x="91" y="-166.3" font-family="Times,serif" font-size="14.00">spam 2[32..35]</text>
<polyline fill="none" stroke="black" points="41,-158.5 141,-158.5 "/>
<text text-anchor="middle" x="91" y="-143.3" font-family="Times,serif" font-size="14.00">==</text>
<polyline fill="none" stroke="black" points="41,-135.5 141,-135.5 "/>
<text text-anchor="middle" x="91" y="-120.3" font-family="Times,serif" font-size="14.00">000a</text>
</g>
<!-- kernel_policy_2 -->
<g id="node10" class="node">
<title>kernel_policy_2</title>
<polygon fill="none" stroke="black" points="41,-24.5 41,-93.5 141,-93.5 141,-24.5 41,-24.5"/>
<text text-anchor="middle" x="91" y="-78.3" font-family="Times,serif" font-size="14.00">spam 2[36..39]</text>
<polyline fill="none" stroke="black" points="41,-70.5 141,-70.5 "/>
<text text-anchor="middle" x="91" y="-55.3" font-family="Times,serif" font-size="14.00">&gt;=</text>
<polyline fill="none" stroke="black" points="41,-47.5 141,-47.5 "/>
<text text-anchor="middle" x="91" y="-32.3" font-family="Times,serif" font-size="14.00">0008</text>
</g>
</g>
</svg>
